<svg width="27" height="29" viewBox="0 0 27 29" fill="none" xmlns="http://www.w3.org/2000/svg">
<path d="M9.58798 26.3454V22.0803C9.58798 20.9915 10.4771 20.1089 11.5738 20.1089H15.5829C16.1096 20.1089 16.6147 20.3166 16.9871 20.6863C17.3595 21.056 17.5687 21.5574 17.5687 22.0803V26.3454C17.5654 26.798 17.7442 27.2333 18.0654 27.5545C18.3867 27.8758 18.8238 28.0564 19.2798 28.0564H22.015C23.2924 28.0597 24.5186 27.5582 25.4231 26.6627C26.3276 25.7671 26.8359 24.5511 26.8359 23.2829V11.1323C26.8359 10.1079 26.3785 9.13617 25.5869 8.47895L16.2823 1.10175C14.6638 -0.191728 12.3447 -0.149965 10.7745 1.20094L1.68217 8.47895C0.853238 9.1168 0.357796 10.0914 0.333313 11.1323V23.2705C0.333313 25.9137 2.49171 28.0564 5.15423 28.0564H7.82697C8.774 28.0564 9.54365 27.2979 9.55051 26.3578L9.58798 26.3454Z" fill="currentColor"/>
</svg>
